<?xml version="1.0" standalone="no"?>
<!DOCTYPE svg PUBLIC "-//W3C//DTD SVG 20010904//EN"
 "http://www.w3.org/TR/2001/REC-SVG-20010904/DTD/svg10.dtd">
<svg version="1.0" xmlns="http://www.w3.org/2000/svg"
 width="512.000000pt" height="512.000000pt" viewBox="0 0 512.000000 512.000000"
 preserveAspectRatio="xMidYMid meet">

<g transform="translate(0.000000,512.000000) scale(0.100000,-0.100000)"
fill="#000000" stroke="none">
<path d="M1114 3305 l-81 -265 167 0 167 0 -81 265 c-44 146 -83 265 -86 265
-3 0 -42 -119 -86 -265z"/>
<path d="M3051 3190 c-180 -26 -321 -145 -382 -322 -19 -54 -23 -91 -27 -265
l-5 -203 483 0 483 0 -5 203 c-6 227 -18 283 -84 384 -99 148 -282 228 -463
203z"/>
<path d="M4320 2710 c-151 -28 -280 -123 -345 -253 l-26 -52 95 -5 c75 -4 100
-9 123 -26 100 -75 98 -201 -6 -271 -30 -20 -46 -23 -137 -23 l-104 0 0 -320
0 -320 224 0 c215 0 224 -1 257 -23 106 -71 106 -203 0 -274 -33 -22 -42 -23
-252 -23 -121 0 -219 -4 -219 -8 0 -5 9 -35 20 -67 50 -147 162 -254 313 -301
l57 -18 0 -203 0 -203 -560 0 -560 0 0 205 0 204 42 12 c108 29 212 102 271
192 32 48 83 174 74 183 -1 2 -213 5 -470 6 l-467 3 6 -30 c10 -51 70 -168
108 -211 49 -57 130 -109 210 -135 l66 -22 0 -203 0 -204 -840 0 -840 0 0 200
0 200 316 0 c309 0 315 0 309 20 -3 11 -35 81 -70 157 l-65 138 -650 0 -650 0
-65 -138 c-35 -76 -67 -146 -70 -157 -6 -20 0 -20 389 -20 l396 0 0 -200 0
-200 -491 0 -491 0 -29 -29 c-16 -16 -29 -39 -29 -51 0 -12 13 -35 29 -51 l29
-29 2342 0 2342 0 29 29 c16 16 29 39 29 51 0 12 -13 35 -29 51 l-29 29 -211
0 -211 0 0 203 0 203 58 18 c149 46 256 149 314 302 23 59 23 61 23 669 0 569
-1 614 -19 665 -66 195 -223 319 -423 334 -38 2 -88 1 -113 -4z"/>
<path d="M1501 2484 c-43 -77 -49 -78 -375 -84 l-289 -5 -93 -305 c-52 -168
-94 -311 -94 -317 0 -10 30 -13 115 -13 63 0 115 -2 115 -5 0 -3 -10 -25 -21
-48 l-21 -42 28 27 c16 15 49 36 74 47 42 19 65 21 330 21 l285 0 -35 21 c-51
30 -73 65 -78 124 -8 103 46 165 153 174 l63 6 -64 210 c-36 116 -66 214 -67
220 -2 5 -14 -9 -26 -31z"/>
<path d="M3420 2072 c122 -54 134 -227 20 -291 -36 -20 -51 -21 -311 -21
l-274 0 50 -24 c92 -42 141 -129 133 -236 l-4 -60 283 0 283 0 0 320 0 320
-97 -1 c-54 0 -91 -3 -83 -7z"/>
<path d="M770 1514 c-14 -32 -26 -62 -28 -66 -2 -4 12 -8 30 -8 l35 0 -4 58
c-3 31 -5 61 -7 65 -1 5 -13 -17 -26 -49z"/>
</g>
</svg>
