<svg viewBox="0 0 177.59722900390625 112.66302490234375" fill="none" xmlns="http://www.w3.org/2000/svg">
<path d="M98.6192 47.3676L96.6646 47.7805L98.6192 47.3676C98.0571 44.7064 97.7584 41.9768 97.7316 39.2565L95.7317 39.2762L97.7316 39.2565C97.7041 36.4654 97.9627 33.6457 98.5007 30.8775C99.0371 28.1182 99.8503 25.4151 100.917 22.8448C101.956 20.3396 103.249 17.9268 104.76 15.6748L103.099 14.5605L104.76 15.6748C106.243 13.4636 107.953 11.383 109.839 9.49219L109.839 9.49217C110.123 9.20767 110.412 8.92705 110.704 8.6505C110.387 9.82923 110.111 11.0206 109.878 12.221C104.512 39.8233 122.601 66.6407 150.203 72.006C154.467 72.8349 158.758 73.1208 163.026 72.8632C162.191 73.4455 161.335 73.9974 160.459 74.5172C157.628 76.1984 154.602 77.5411 151.466 78.5078C148.274 79.4915 144.969 80.0857 141.641 80.2737C138.214 80.4673 134.749 80.2304 131.343 79.5683C128.575 79.0303 125.864 78.2137 123.286 77.1426C120.774 76.0987 118.355 74.7992 116.098 73.2811C113.882 71.7904 111.798 70.0728 109.905 68.1769L108.489 69.5901L109.905 68.1769C108.029 66.2989 106.324 64.2286 104.838 62.0247C103.351 59.8209 102.07 57.4643 101.032 55.0222L99.1912 55.805L101.032 55.0222C99.9829 52.5567 99.1711 49.9807 98.6192 47.3676Z" fill="#FFEC8D" stroke="#707070" stroke-width="4"/>
<path d="M106.657 113.017C98.0275 113.017 65.254 113.017 55.208 113.017C49.6211 113.017 44.2019 111.923 39.1009 109.765C34.1733 107.681 29.7476 104.697 25.9467 100.897C22.1459 97.0958 19.1619 92.6703 17.0777 87.7428C14.9201 82.6419 13.826 77.2228 13.826 71.6361C13.826 66.0494 14.9201 60.6303 17.0777 55.5294C19.1619 50.602 22.1459 46.1764 25.9467 42.3757C29.7476 38.5749 34.1733 35.591 39.1009 33.5068C44.2019 31.3493 49.6211 30.2553 55.208 30.2553C63.3306 30.2553 71.193 32.6068 77.9453 37.0554C84.5293 41.3933 89.7178 47.4744 92.9501 54.6413L93.4071 55.6546L94.4232 55.2039C98.283 53.4915 102.399 52.6232 106.657 52.6232C114.723 52.6232 122.306 55.7644 128.009 61.4682C133.713 67.1719 136.854 74.7551 136.854 82.8211C136.854 90.8869 133.713 98.4698 128.009 104.173C122.306 109.876 114.723 113.017 106.657 113.017Z" fill="#EAEFFB" stroke="#707070" stroke-width="4"/>
<path d="M75.2217 112.857C68.4747 112.857 42.8508 112.857 34.9962 112.857C30.6281 112.857 26.3911 112.002 22.4029 110.315C18.5502 108.686 15.09 106.353 12.1183 103.381C9.14661 100.409 6.81357 96.9493 5.184 93.0968C3.49708 89.1086 2.64172 84.8717 2.64172 80.5037C2.64172 76.1358 3.49708 71.8988 5.184 67.9107C6.81357 64.0582 9.14661 60.598 12.1183 57.6264C15.09 54.6548 18.5502 52.3218 22.4029 50.6923C26.3911 49.0054 30.6281 48.1501 34.9962 48.1501C41.3469 48.1501 47.4942 49.9886 52.7734 53.4668C57.9211 56.8583 61.9778 61.6128 64.505 67.2163L64.8623 68.0086L65.6567 67.6561C68.6745 66.3173 71.8926 65.6385 75.2217 65.6385C81.528 65.6385 87.4569 68.0944 91.9161 72.5539C96.3752 77.0133 98.831 82.9423 98.831 89.2487C98.831 95.555 96.3752 101.484 91.9161 105.943C87.457 110.402 81.5281 112.857 75.2217 112.857Z" fill="#EAF1FB" stroke="#707070" stroke-width="4"/>
</svg>