<svg viewBox="0 0 134.21189880371094 121.1168212890625" fill="none" xmlns="http://www.w3.org/2000/svg">
<path d="M106.39 84.8868C97.7607 84.8868 64.9873 84.8868 54.9413 84.8868C49.3544 84.8868 43.9352 83.7928 38.8341 81.6353C33.9066 79.5511 29.4809 76.5671 25.68 72.7664C21.8792 68.9657 18.8952 64.5401 16.8109 59.6126C14.6533 54.5117 13.5593 49.0927 13.5593 43.5059C13.5593 37.9192 14.6533 32.5002 16.8109 27.3993C18.8952 22.4718 21.8792 18.0462 25.68 14.2455C29.4809 10.4447 33.9066 7.46084 38.8341 5.37664C43.9352 3.2191 49.3544 2.12512 54.9413 2.12512C63.0639 2.12512 70.9263 4.47657 77.6785 8.92526C84.2625 13.2631 89.4511 19.3442 92.6834 26.5112L93.1404 27.5245L94.1565 27.0737C98.0163 25.3613 102.132 24.493 106.39 24.493C114.456 24.493 122.039 27.6342 127.743 33.338C133.446 39.0417 136.587 46.625 136.587 54.6909C136.587 62.7567 133.446 70.3396 127.743 76.0428C122.039 81.7459 114.456 84.8868 106.39 84.8868Z" fill="#EAEFFB" stroke="#707070" stroke-width="4"/>
<path d="M74.955 84.7272C68.208 84.7272 42.584 84.7272 34.7295 84.7272C30.3614 84.7272 26.1244 83.8719 22.1361 82.185C18.2835 80.5555 14.8233 78.2225 11.8516 75.2509C8.87988 72.2793 6.54685 68.8191 4.91727 64.9666C3.23035 60.9784 2.375 56.7415 2.375 52.3735C2.375 48.0056 3.23035 43.7687 4.91727 39.7805C6.54685 35.928 8.87988 32.4678 11.8516 29.4962C14.8233 26.5246 18.2835 24.1916 22.1361 22.5621C26.1244 20.8752 30.3614 20.0199 34.7295 20.0199C41.0802 20.0199 47.2274 21.8584 52.5067 25.3366C57.6544 28.7281 61.7111 33.4826 64.2382 39.0862L64.5956 39.8784L65.39 39.526C68.4078 38.1871 71.6259 37.5083 74.955 37.5083C81.2613 37.5083 87.1902 39.9642 91.6494 44.4237C96.1085 48.8832 98.5643 54.8122 98.5643 61.1185C98.5643 67.4248 96.1085 73.3535 91.6494 77.8125C87.1903 82.2715 81.2614 84.7272 74.955 84.7272Z" fill="#EAF1FB" stroke="#707070" stroke-width="4"/>
<line x1="23" y1="104.414" x2="26.4135" y2="101" stroke="#707070" stroke-width="4" stroke-linecap="round"/>
<line x1="39" y1="120.414" x2="42.4135" y2="117" stroke="#707070" stroke-width="4" stroke-linecap="round"/>
<line x1="55" y1="104.414" x2="58.4135" y2="101" stroke="#707070" stroke-width="4" stroke-linecap="round"/>
<line x1="71" y1="120.414" x2="74.4135" y2="117" stroke="#707070" stroke-width="4" stroke-linecap="round"/>
<line x1="87" y1="104.414" x2="90.4135" y2="101" stroke="#707070" stroke-width="4" stroke-linecap="round"/>
<line x1="103" y1="120.414" x2="106.414" y2="117" stroke="#707070" stroke-width="4" stroke-linecap="round"/>
</svg>