<?xml version="1.0" standalone="no"?>
<!DOCTYPE svg PUBLIC "-//W3C//DTD SVG 20010904//EN"
 "http://www.w3.org/TR/2001/REC-SVG-20010904/DTD/svg10.dtd">
<svg version="1.0" xmlns="http://www.w3.org/2000/svg"
 width="512.000000pt" height="512.000000pt" viewBox="0 0 512.000000 512.000000"
 preserveAspectRatio="xMidYMid meet">

<g transform="translate(0.000000,512.000000) scale(0.100000,-0.100000)"
fill="#000000" stroke="none">
<path d="M2462 5094 c-54 -27 -91 -66 -113 -119 -7 -18 -14 -110 -18 -232 l-6
-201 -174 99 c-171 97 -177 99 -238 99 -71 0 -121 -20 -165 -67 -80 -84 -76
-237 8 -314 16 -15 152 -98 302 -184 l272 -157 0 -294 c0 -162 -3 -294 -6
-294 -3 0 -80 54 -170 120 -132 97 -170 120 -197 120 -73 0 -79 -33 -47 -305
11 -93 18 -171 16 -173 -3 -2 -119 63 -260 144 l-256 148 0 333 c0 279 -3 340
-16 371 -51 124 -208 176 -321 106 -29 -18 -59 -49 -78 -78 l-30 -49 -3 -209
c-2 -114 -6 -208 -8 -208 -3 0 -64 34 -135 75 -192 113 -220 125 -278 125
-114 0 -204 -77 -226 -192 -10 -52 18 -139 58 -181 17 -18 105 -75 194 -126
90 -52 160 -97 158 -102 -3 -4 -74 -47 -158 -94 -83 -48 -165 -99 -180 -114
-78 -71 -95 -190 -41 -278 43 -69 108 -106 187 -107 73 -1 63 -6 406 193 134
78 245 141 248 141 6 0 494 -280 506 -290 5 -4 -76 -45 -180 -90 -103 -46
-196 -90 -205 -98 -24 -20 -24 -84 0 -104 9 -8 102 -52 205 -98 104 -45 185
-86 180 -90 -4 -4 -119 -71 -256 -149 l-247 -142 -53 28 c-28 16 -154 88 -279
161 -126 72 -247 136 -270 142 -56 16 -116 5 -171 -30 -122 -77 -137 -252 -30
-351 15 -15 97 -66 180 -114 84 -47 155 -90 158 -94 2 -5 -68 -50 -158 -102
-89 -51 -177 -108 -194 -126 -40 -42 -68 -129 -58 -181 21 -112 112 -192 218
-192 63 0 94 13 264 112 84 48 154 88 157 88 2 0 6 -93 8 -207 3 -208 3 -208
31 -256 72 -122 231 -150 338 -59 78 67 79 72 79 453 l0 335 256 148 c141 81
257 146 260 144 2 -2 -5 -80 -16 -173 -25 -218 -25 -267 -2 -288 41 -37 73
-24 246 103 90 66 167 120 170 120 3 0 6 -132 6 -294 l0 -294 -272 -157 c-150
-86 -286 -169 -302 -184 -88 -80 -88 -241 0 -323 42 -39 95 -58 162 -58 55 0
67 5 233 99 l174 99 5 -201 c5 -185 8 -206 29 -250 25 -51 65 -87 124 -112
107 -44 242 16 288 130 7 18 14 110 18 232 l6 201 174 -99 c171 -97 177 -99
238 -99 71 0 121 20 165 67 80 84 76 237 -8 314 -16 15 -152 98 -301 184
l-273 157 0 299 0 299 170 -125 c138 -102 175 -125 203 -125 74 0 79 32 47
305 -11 93 -18 171 -16 173 2 2 119 -63 260 -144 l256 -147 0 -334 c0 -279 3
-340 16 -371 51 -124 208 -176 321 -106 29 18 59 49 78 78 l30 49 3 209 c2
114 6 208 8 208 3 0 73 -39 156 -88 178 -102 197 -110 261 -111 148 -3 255
139 213 284 -23 78 -64 114 -249 219 -123 70 -155 92 -145 101 7 7 78 49 158
95 80 45 158 94 173 109 76 70 95 187 43 275 -50 85 -155 130 -245 106 -22 -6
-165 -83 -317 -170 -152 -88 -278 -160 -281 -160 -5 0 -495 281 -506 290 -5 4
76 44 180 90 103 45 196 89 206 98 23 20 23 84 0 104 -10 9 -103 53 -206 98
-104 46 -185 86 -180 90 11 9 501 290 506 290 3 0 129 -72 281 -160 152 -87
295 -164 317 -170 90 -24 195 21 245 106 52 88 33 205 -43 275 -15 15 -93 64
-173 109 -80 46 -151 88 -158 95 -10 9 22 31 145 101 185 105 226 141 249 219
42 146 -63 285 -216 285 -59 0 -74 -7 -267 -118 -78 -45 -144 -82 -147 -82 -2
0 -6 94 -8 208 l-3 209 -30 49 c-80 129 -253 147 -357 37 -56 -59 -58 -73 -58
-436 l0 -334 -256 -147 c-141 -81 -258 -146 -260 -144 -2 2 5 80 16 173 25
218 25 267 2 288 -41 38 -73 24 -252 -108 l-170 -125 0 299 0 299 273 157
c149 86 285 169 301 184 84 77 88 230 8 314 -44 47 -94 67 -165 67 -61 0 -67
-2 -238 -99 l-174 -99 -6 201 c-4 122 -11 214 -18 232 -22 54 -63 97 -115 121
-68 32 -128 31 -194 -2z m142 -145 l26 -20 0 -259 c0 -155 4 -270 10 -286 13
-34 38 -53 68 -54 13 0 124 59 248 130 242 140 277 152 308 108 21 -30 20 -71
-1 -96 -10 -10 -145 -93 -301 -182 -156 -90 -293 -171 -305 -181 l-22 -17 0
-425 c0 -404 1 -426 19 -446 13 -14 31 -21 55 -21 30 1 62 20 191 115 85 63
158 115 161 115 3 0 -3 -69 -12 -152 -25 -214 -24 -262 3 -288 12 -11 32 -20
45 -20 30 0 699 383 736 422 l27 28 0 351 c0 228 4 357 11 370 25 48 105 44
128 -7 7 -17 11 -113 11 -286 0 -255 1 -262 22 -285 12 -13 33 -23 48 -23 15
0 120 54 253 130 124 72 237 130 251 130 31 0 63 -28 71 -61 10 -43 -31 -76
-255 -204 -113 -64 -213 -126 -222 -137 -25 -28 -23 -70 5 -95 12 -12 117 -76
232 -143 116 -66 215 -126 222 -133 6 -7 15 -24 18 -39 10 -39 -43 -93 -81
-84 -15 4 -158 83 -320 176 -190 111 -303 170 -321 170 -23 0 -380 -198 -710
-395 -38 -23 -54 -59 -41 -97 10 -28 31 -40 256 -138 67 -30 122 -57 122 -60
0 -3 -55 -30 -122 -60 -225 -98 -246 -110 -256 -139 -13 -37 3 -74 41 -96 330
-197 687 -395 710 -395 18 0 131 59 321 170 162 93 305 172 320 176 38 9 91
-45 81 -84 -3 -15 -12 -32 -18 -39 -7 -7 -106 -67 -222 -133 -115 -67 -220
-131 -232 -143 -24 -22 -29 -56 -13 -87 5 -10 109 -75 230 -146 122 -70 230
-139 241 -153 35 -43 0 -111 -57 -111 -14 0 -127 59 -251 130 -143 82 -237
130 -255 130 -15 0 -37 -9 -48 -20 -19 -19 -20 -33 -20 -291 l0 -271 -30 -30
c-25 -24 -36 -29 -58 -24 -15 4 -35 16 -44 28 -16 18 -18 52 -18 374 l0 354
-27 28 c-37 39 -706 422 -736 422 -13 0 -33 -9 -45 -20 -27 -26 -28 -74 -3
-287 9 -84 15 -153 12 -153 -3 0 -76 52 -161 115 -129 95 -161 114 -191 115
-24 0 -42 -7 -55 -21 -18 -20 -19 -42 -19 -446 l0 -425 22 -17 c12 -10 149
-91 305 -181 156 -89 291 -172 301 -182 21 -25 22 -66 1 -96 -31 -44 -66 -32
-308 108 -124 72 -235 130 -248 130 -30 -1 -55 -20 -68 -54 -6 -16 -10 -131
-10 -286 l0 -259 -26 -20 c-34 -26 -54 -26 -88 0 l-26 20 0 259 c0 155 -4 270
-10 286 -13 34 -38 53 -68 54 -12 0 -124 -59 -248 -130 -242 -140 -277 -152
-308 -108 -21 30 -20 71 2 96 9 10 144 92 299 181 156 90 293 171 305 181 l23
18 0 425 c0 404 -1 426 -19 446 -13 14 -31 21 -55 21 -30 -1 -62 -20 -191
-115 -85 -63 -158 -115 -161 -115 -3 0 3 69 12 152 25 214 24 262 -3 288 -12
11 -32 20 -45 20 -30 0 -710 -391 -740 -426 -23 -25 -23 -26 -23 -375 0 -228
-4 -357 -11 -370 -25 -48 -105 -44 -128 7 -7 17 -11 114 -11 289 0 252 -1 266
-20 285 -11 11 -33 20 -48 20 -18 0 -112 -48 -255 -130 -124 -71 -237 -130
-251 -130 -31 0 -63 28 -71 61 -10 43 31 75 255 203 113 65 213 127 223 138
24 28 22 70 -5 95 -13 12 -117 76 -233 143 -115 67 -215 127 -222 133 -6 7
-15 24 -18 39 -6 22 -1 33 24 59 25 25 37 30 58 24 14 -3 158 -82 319 -176
189 -108 303 -169 321 -169 24 0 395 206 690 383 58 34 75 66 61 109 -11 30
-35 43 -255 138 -68 29 -123 56 -123 60 0 4 55 31 123 60 221 95 245 108 255
138 14 43 -3 75 -61 109 -296 177 -666 383 -690 383 -18 0 -132 -61 -321 -169
-161 -94 -305 -173 -319 -176 -21 -6 -33 -1 -58 24 -25 26 -30 37 -24 59 3 15
12 32 18 39 7 6 107 66 222 133 116 67 220 131 233 143 27 25 29 67 5 95 -10
11 -110 73 -223 138 -224 128 -265 160 -255 203 8 33 40 61 71 61 14 0 127
-58 251 -130 141 -80 238 -130 255 -130 15 0 36 10 48 22 19 21 20 34 20 284
0 174 4 271 11 288 23 51 103 55 128 7 7 -13 11 -142 11 -370 0 -349 0 -350
23 -375 30 -35 710 -426 740 -426 13 0 33 9 45 20 27 26 28 74 3 288 -9 83
-15 152 -12 152 3 0 77 -52 163 -115 170 -125 204 -138 244 -94 18 20 19 42
19 446 l0 425 -23 18 c-12 10 -149 91 -305 181 -155 89 -290 171 -299 181 -22
25 -23 66 -2 96 31 44 66 32 308 -108 124 -71 236 -130 248 -130 30 1 55 20
68 54 6 16 10 131 10 286 l0 259 26 20 c15 12 34 21 44 21 10 0 29 -9 44 -21z"/>
<path d="M2443 3046 c-67 -17 -154 -60 -192 -95 -55 -52 -32 -135 37 -134 15
0 53 16 85 36 106 65 223 73 330 24 77 -35 132 -88 169 -165 29 -59 33 -76 33
-152 0 -76 -4 -93 -33 -152 -38 -77 -92 -130 -171 -167 -47 -22 -70 -26 -141
-26 -71 0 -94 4 -141 26 -79 37 -133 90 -171 167 -29 59 -33 77 -35 160 -2
108 -15 132 -68 132 -55 0 -76 -26 -82 -103 -23 -284 211 -537 497 -537 270 0
500 230 500 500 0 274 -233 503 -508 499 -31 0 -80 -6 -109 -13z"/>
</g>
</svg>
