<?xml version="1.0" encoding="UTF-8"?>
<svg version="1.1" xmlns="http://www.w3.org/2000/svg" width="512" height="512">
<path d="M0 0 C2.00775748 1.76393685 3.9737018 3.56119487 5.9375 5.375 C6.61167969 5.97957031 7.28585937 6.58414062 7.98046875 7.20703125 C21.40146615 19.82952537 30.52128615 36.9560208 35.9375 54.375 C37.10023438 54.40078125 38.26296875 54.4265625 39.4609375 54.453125 C66.80918213 55.31469124 92.05328185 63.26149072 112.9375 81.375 C113.74574219 82.03886719 114.55398438 82.70273438 115.38671875 83.38671875 C134.80957382 99.88242455 147.95539417 124.48939776 151.73828125 149.66796875 C152.1723829 155.56664415 152.08103088 161.46631202 151.9375 167.375 C152.48535156 167.38917969 153.03320312 167.40335938 153.59765625 167.41796875 C174.56810032 168.67960522 192.83999618 180.64416622 206.64599609 195.84521484 C218.74025159 210.17084905 224.55155612 228.68497066 224.375 247.1875 C224.36597656 248.32751465 224.35695313 249.4675293 224.34765625 250.64208984 C223.97277 268.94122469 217.40502875 286.73786277 204.9375 300.375 C204.13699219 301.26703125 203.33648437 302.1590625 202.51171875 303.078125 C193.11823511 313.0289644 181.97145298 320.06083778 168.9375 324.375 C168.20054398 324.62378906 167.46358795 324.87257813 166.70429993 325.12890625 C156.70503345 328.08098289 146.83543167 327.75549378 136.515625 327.66796875 C134.55979744 327.66236283 132.60396563 327.65809745 130.64813232 327.65510559 C125.53865615 327.64373522 120.42944207 327.61433655 115.32006836 327.58099365 C110.09101912 327.55012307 104.8619269 327.53656419 99.6328125 327.52148438 C89.40092749 327.48945831 79.16923567 327.43835811 68.9375 327.375 C68.64762207 328.13578857 68.35774414 328.89657715 68.05908203 329.68041992 C66.68170085 332.98955273 64.82930168 335.72735559 62.8125 338.6875 C62.08804687 339.75613281 61.36359375 340.82476562 60.6171875 341.92578125 C60.06289063 342.73402344 59.50859375 343.54226563 58.9375 344.375 C59.78441406 344.61992187 60.63132812 344.86484375 61.50390625 345.1171875 C70.56481864 348.43642958 80.85751842 354.99693806 85.9375 363.375 C88.79407581 369.54921298 89.90538957 375.77235412 87.9375 382.375 C85.53917616 388.34045107 82.32769017 392.54553107 77.6875 396.9375 C77.10468262 397.50412354 76.52186523 398.07074707 75.92138672 398.65454102 C72.44837806 402.00837308 68.89848512 405.25269061 65.21875 408.37890625 C61.92757395 411.25868529 58.75174307 414.25821991 55.5625 417.25 C50.57410389 421.92585682 45.55050784 426.55211219 40.453125 431.109375 C36.90481202 434.3050606 33.40172274 437.54875265 29.89624023 440.79125977 C24.75259423 445.548925 19.5890806 450.28459798 14.42138672 455.01611328 C12.4265494 456.84290903 10.43260735 458.67067974 8.43896484 460.4987793 C7.44102483 461.41347651 6.44265485 462.32770486 5.44384766 463.24145508 C2.89681757 465.57255759 0.35791836 467.91161544 -2.16796875 470.265625 C-21.19064921 487.95074981 -21.19064921 487.95074981 -35.6171875 487.6796875 C-43.47930755 486.98439797 -47.61208704 483.32745981 -52.6171875 477.47265625 C-57.08631785 470.98637788 -56.90544194 463.97604442 -56.0625 456.375 C-54.60672217 451.42494258 -52.52089103 446.83738274 -50.3125 442.1875 C-49.72443234 440.89943001 -49.13894507 439.61017915 -48.5559082 438.31982422 C-47.3522201 435.66468236 -46.13509464 433.01637503 -44.90673828 430.37255859 C-43.07012898 426.40924704 -41.29087961 422.42205889 -39.52734375 418.42578125 C-39.2488559 417.79483047 -38.97036804 417.1638797 -38.68344116 416.5138092 C-38.41053253 415.89525558 -38.1376239 415.27670197 -37.85644531 414.6394043 C-35.6074385 409.54427595 -33.33565908 404.459388 -31.0625 399.375 C-34.15022319 396.21076685 -37.27326033 393.29217164 -40.75 390.5625 C-41.61496094 389.87671875 -42.47992188 389.1909375 -43.37109375 388.484375 C-45.1488141 387.09109635 -46.93258886 385.70550431 -48.72265625 384.328125 C-56.17274729 378.5298641 -62.66608921 373.28723342 -64.609375 363.66796875 C-65.44924026 350.82772096 -59.34271561 339.76959294 -54.0625 328.375 C-55.74653931 328.36098145 -55.74653931 328.36098145 -57.46459961 328.34667969 C-61.7162741 328.30615557 -65.96727123 328.2402409 -70.21850586 328.16748047 C-72.04230913 328.13962637 -73.86622514 328.11823937 -75.69018555 328.10400391 C-105.51507574 327.85758509 -130.33348513 318.52260879 -151.65844727 297.21801758 C-163.63586911 284.73306144 -175.0625 264.86981354 -175.0625 247.375 C-175.91255615 247.39594727 -176.7626123 247.41689453 -177.63842773 247.43847656 C-208.9409491 248.10786796 -234.87442886 244.0417355 -258.69140625 221.7109375 C-277.15797035 203.51817748 -287.88716835 181.01705487 -288.53540039 155.05615234 C-288.74466328 126.63033416 -280.30121673 102.9183128 -260.0625 82.375 C-237.49201365 59.76677036 -210.6275188 54.78389657 -180.0625 54.375 C-179.7221875 53.38242188 -179.381875 52.38984375 -179.03125 51.3671875 C-173.93180819 36.90413092 -167.21565769 25.01579985 -157.0625 13.375 C-156.52367187 12.69179688 -155.98484375 12.00859375 -155.4296875 11.3046875 C-142.14465119 -5.18477968 -121.87694581 -15.46841571 -102.0625 -21.625 C-100.91136719 -21.98722656 -99.76023438 -22.34945313 -98.57421875 -22.72265625 C-65.15078498 -31.16688452 -26.23001509 -22.33870711 0 0 Z " fill="#9FCDF0" transform="translate(288.0625,24.625)"/>
<path d="M0 0 C2.00775748 1.76393685 3.9737018 3.56119487 5.9375 5.375 C6.61167969 5.97957031 7.28585937 6.58414062 7.98046875 7.20703125 C19.84342091 18.36417847 30.95270675 35.43582699 34.9375 51.375 C34.9375 52.695 34.9375 54.015 34.9375 55.375 C33.679375 55.53355469 32.42125 55.69210938 31.125 55.85546875 C-0.17789214 60.02201284 -28.59528744 73.339819 -48.375 98.75 C-56.83845215 110.06671902 -62.49472177 122.0523135 -67.0625 135.375 C-67.92862915 135.39687378 -67.92862915 135.39687378 -68.81225586 135.41918945 C-101.25631463 136.32853566 -127.85871527 143.04584645 -151.203125 167.27734375 C-154.57146628 171.07734221 -157.38730457 175.06089537 -160.0625 179.375 C-160.42520996 179.95862305 -160.78791992 180.54224609 -161.16162109 181.14355469 C-174.44903485 202.98603157 -176.08807468 226.4760128 -174.0625 251.375 C-174.3925 250.055 -174.7225 248.735 -175.0625 247.375 C-175.91255615 247.39594727 -176.7626123 247.41689453 -177.63842773 247.43847656 C-208.9409491 248.10786796 -234.87442886 244.0417355 -258.69140625 221.7109375 C-277.15797035 203.51817748 -287.88716835 181.01705487 -288.53540039 155.05615234 C-288.74466328 126.63033416 -280.30121673 102.9183128 -260.0625 82.375 C-237.49201365 59.76677036 -210.6275188 54.78389657 -180.0625 54.375 C-179.7221875 53.38242188 -179.381875 52.38984375 -179.03125 51.3671875 C-173.93180819 36.90413092 -167.21565769 25.01579985 -157.0625 13.375 C-156.52367187 12.69179688 -155.98484375 12.00859375 -155.4296875 11.3046875 C-142.14465119 -5.18477968 -121.87694581 -15.46841571 -102.0625 -21.625 C-100.91136719 -21.98722656 -99.76023438 -22.34945313 -98.57421875 -22.72265625 C-65.15078498 -31.16688452 -26.23001509 -22.33870711 0 0 Z " fill="#388AC8" transform="translate(288.0625,24.625)"/>
<path d="M0 0 C0.89874816 0.00092179 1.79749632 0.00184359 2.72347927 0.00279331 C3.75138073 0.00141865 4.77928219 0.00004398 5.83833218 -0.00137234 C6.975527 0.00222294 8.11272182 0.00581821 9.2843771 0.00952244 C10.47445873 0.00937641 11.66454037 0.00923038 12.89068508 0.00907993 C16.16326569 0.00965889 19.43580402 0.01468801 22.70837617 0.02165389 C26.1250196 0.02788815 29.54166379 0.02849128 32.95831203 0.0296793 C39.43232563 0.0327924 45.90632242 0.0410055 52.3803286 0.05102879 C59.74901216 0.06219058 67.11769651 0.06770054 74.48638642 0.07272422 C89.64814464 0.08318813 104.80988712 0.10078717 119.97163296 0.12304783 C118.37686866 4.30852845 116.37389967 7.72617249 113.84663296 11.43554783 C113.12217983 12.50418064 112.39772671 13.57281345 111.65132046 14.67382908 C111.09702358 15.48207127 110.54272671 16.29031345 109.97163296 17.12304783 C110.81854702 17.3679697 111.66546108 17.61289158 112.53803921 17.86523533 C121.59895159 21.18447741 131.89165137 27.74498589 136.97163296 36.12304783 C139.82820877 42.29726081 140.93952253 48.52040195 138.97163296 55.12304783 C136.57330912 61.0884989 133.36182313 65.2935789 128.72163296 69.68554783 C128.13881557 70.25217136 127.55599819 70.8187949 126.95551968 71.40258884 C123.48251101 74.75642091 119.93261808 78.00073844 116.25288296 81.12695408 C112.96170691 84.00673312 109.78587603 87.00626774 106.59663296 89.99804783 C101.60823685 94.67390465 96.5846408 99.30016002 91.48725796 103.85742283 C87.93894498 107.05310843 84.4358557 110.29680048 80.93037319 113.53930759 C75.78672719 118.29697283 70.62321356 123.03264581 65.45551968 127.76416111 C63.46068235 129.59095686 61.46674031 131.41872757 59.4730978 133.24682713 C58.47515779 134.16152434 57.4767878 135.07575269 56.47798061 135.98950291 C53.93095053 138.32060541 51.39205132 140.65966326 48.86616421 143.01367283 C29.84348375 160.69879763 29.84348375 160.69879763 15.41694546 160.42773533 C7.55482541 159.7324458 3.42204592 156.07550764 -1.58305454 150.22070408 C-6.05218489 143.73442571 -5.87130898 136.72409225 -5.02836704 129.12304783 C-3.57258921 124.1729904 -1.48675807 119.58543057 0.72163296 114.93554783 C1.30970061 113.64747784 1.89518788 112.35822698 2.47822475 111.06787205 C3.68191286 108.41273019 4.89903832 105.76442285 6.12739468 103.12060642 C7.96400398 99.15729487 9.74325334 95.17010672 11.50678921 91.17382908 C11.78527706 90.5428783 12.06376492 89.91192753 12.3506918 89.26185703 C12.62360043 88.64330341 12.89650906 88.02474979 13.17768764 87.38745213 C15.42669445 82.29232378 17.69847387 77.20743583 19.97163296 72.12304783 C16.88390977 68.95881468 13.76087262 66.04021947 10.28413296 63.31054783 C9.41917202 62.62476658 8.55421108 61.93898533 7.66303921 61.23242283 C5.88531886 59.83914418 4.1015441 58.45355214 2.31147671 57.07617283 C-5.13861433 51.27791193 -11.63195625 46.03528125 -13.57524204 36.41601658 C-14.40567648 23.71995165 -8.53229405 12.29895075 -3.02836704 1.12304783 C-2.02836704 0.12304783 -2.02836704 0.12304783 0 0 Z " fill="#FFBF6A" transform="translate(237.0283670425415,351.8769521713257)"/>
<path d="M0 0 C3.68902865 3.11261792 5.70946344 4.91073258 6.23828125 9.96484375 C6.66612661 25.29972202 -0.96125745 39.44585801 -11 50.6875 C-16.78387839 56.45899321 -21.45398536 58.97034438 -29.8125 59.0625 C-37.13585135 58.9249005 -41.64782604 57.87972928 -46.96484375 52.81640625 C-53.3481575 45.91094004 -54.47457357 40.48626326 -54.30859375 31.1328125 C-53.67243472 24.03037882 -50.36402702 19.27739067 -45.234375 14.4765625 C-34.10448755 5.5648694 -14.81680782 -6.48235342 0 0 Z " fill="#9ACAF0" transform="translate(214,429.3125)"/>
<path d="M0 0 C3.68902865 3.11261792 5.70946344 4.91073258 6.23828125 9.96484375 C6.66612661 25.29972202 -0.96125745 39.44585801 -11 50.6875 C-16.78387839 56.45899321 -21.45398536 58.97034438 -29.8125 59.0625 C-37.13585135 58.9249005 -41.64782604 57.87972928 -46.96484375 52.81640625 C-53.3481575 45.91094004 -54.47457357 40.48626326 -54.30859375 31.1328125 C-53.67243472 24.03037882 -50.36402702 19.27739067 -45.234375 14.4765625 C-34.10448755 5.5648694 -14.81680782 -6.48235342 0 0 Z " fill="#9ACAF0" transform="translate(454,373.3125)"/>
<path d="M0 0 C2.9884085 3.2520916 4.04665522 5.91146289 4.19140625 10.34765625 C3.79083541 17.23019163 1.27697032 23.93649258 -3.46875 29.01953125 C-8.63546143 33.41376866 -12.27545758 33.66105967 -18.890625 33.58984375 C-24.24549732 33.09220509 -26.68840277 30.56154972 -30.25 26.8125 C-32.65271177 21.63742849 -32.60903133 16.92204467 -31.875 11.3125 C-29.15616222 4.92914174 -23.08857745 1.04378229 -16.79296875 -1.54296875 C-10.83272424 -3.29459879 -5.40928678 -3.17501615 0 0 Z " fill="#9BCBF0" transform="translate(375.875,462.6875)"/>
<path d="M0 0 C2.9884085 3.2520916 4.04665522 5.91146289 4.19140625 10.34765625 C3.79083541 17.23019163 1.27697032 23.93649258 -3.46875 29.01953125 C-8.63546143 33.41376866 -12.27545758 33.66105967 -18.890625 33.58984375 C-24.24549732 33.09220509 -26.68840277 30.56154972 -30.25 26.8125 C-32.65271177 21.63742849 -32.60903133 16.92204467 -31.875 11.3125 C-29.15616222 4.92914174 -23.08857745 1.04378229 -16.79296875 -1.54296875 C-10.83272424 -3.29459879 -5.40928678 -3.17501615 0 0 Z " fill="#9BCBF0" transform="translate(167.875,374.6875)"/>
<path d="M0 0 C2.9884085 3.2520916 4.04665522 5.91146289 4.19140625 10.34765625 C3.79083541 17.23019163 1.27697032 23.93649258 -3.46875 29.01953125 C-8.63546143 33.41376866 -12.27545758 33.66105967 -18.890625 33.58984375 C-24.24549732 33.09220509 -26.68840277 30.56154972 -30.25 26.8125 C-32.65271177 21.63742849 -32.60903133 16.92204467 -31.875 11.3125 C-29.15616222 4.92914174 -23.08857745 1.04378229 -16.79296875 -1.54296875 C-10.83272424 -3.29459879 -5.40928678 -3.17501615 0 0 Z " fill="#9BCBF0" transform="translate(95.875,366.6875)"/>
<path d="M0 0 C0.66 0.33 1.32 0.66 2 1 C-4.27 7.27 -10.54 13.54 -17 20 C-17.66 19.67 -18.32 19.34 -19 19 C-13.0763504 12.14630879 -6.85369121 5.9236496 0 0 Z " fill="#588EAC" transform="translate(38,98)"/>
<path d="M0 0 C0.66 0.33 1.32 0.66 2 1 C-3.28 6.28 -8.56 11.56 -14 17 C-14.66 16.67 -15.32 16.34 -16 16 C-10.96679794 10.22494276 -5.96260189 4.82082706 0 0 Z " fill="#72A2C2" transform="translate(145,24)"/>
</svg>
